<?xml version="1.0" encoding="utf-8"?>
<!-- Generator: Adobe Illustrator 17.1.0, SVG Export Plug-In . SVG Version: 6.00 Build 0)  -->
<!DOCTYPE svg PUBLIC "-//W3C//DTD SVG 1.1//EN" "http://www.w3.org/Graphics/SVG/1.1/DTD/svg11.dtd">
<svg version="1.1" id="Layer_1" xmlns="http://www.w3.org/2000/svg" xmlns:xlink="http://www.w3.org/1999/xlink" x="0px" y="0px"
	 viewBox="0 0 56.118 58.545" enable-background="new 0 0 56.118 58.545" xml:space="preserve">
<g>
	<circle fill="#010101" cx="24.559" cy="36.084" r="3.164"/>
	<circle fill="#010101" cx="12.958" cy="32.836" r="3.164"/>
	<circle fill="#010101" cx="11.355" cy="22.255" r="3.164"/>
	<path fill="#010101" d="M52.838,27.849c1.142-0.761,2.998-2.317,3.251-4.505c0.111-0.953-0.06-2.311-1.302-3.756
		c0.604-1.305,1.328-3.487,0.626-5.452c-0.293-0.825-0.945-1.887-2.384-2.61c-0.338-1.308-1.212-3.629-3.309-4.878
		c-1.319-0.784-2.842-0.992-4.539-0.625c-0.477-0.761-1.235-1.638-2.364-2.132c-0.659-0.288-1.631-0.516-2.854-0.258
		c-0.749-1.125-2.094-2.673-4.12-3.323c-1.707-0.549-3.519-0.366-5.397,0.537C29.74,0.405,28.701-0.041,27.43,0.03
		c-1.279,0.07-2.472,0.636-3.56,1.685c-1.371-0.75-3.628-1.655-5.663-0.937c-0.839,0.296-1.889,0.961-2.608,2.452
		c-1.252-0.056-3.085,0.114-4.364,1.356c-0.657,0.639-1.344,1.746-1.309,3.572c-1.373,0.496-3.344,1.497-4.112,3.315
		c-0.272,0.645-0.462,1.562-0.171,2.689c-1.299,0.626-2.965,1.744-3.63,3.535c-0.321,0.863-0.495,2.149,0.192,3.728
		c-0.857,0.894-1.947,2.376-2.165,4.278c-0.187,1.638,0.284,3.232,1.401,4.751c-0.369,1.36-0.819,3.941,0.336,5.862
		c0.348,0.577,0.937,1.255,1.92,1.701c-0.049,1.169,0.131,2.791,1.191,4.169c1.06,1.379,2.709,2.143,4.899,2.288
		c0.281,1.46,1.562,2.564,3.104,2.564c1.234,0,2.291-0.713,2.813-1.743c0.733,0.258,1.477,0.367,2.2,0.367
		c0.82,0,1.606-0.137,2.316-0.323c0.517,1.197,1.735,2.003,3.112,1.909c1.239-0.085,2.252-0.88,2.697-1.955
		c0.409-0.012,0.828-0.059,1.254-0.176c1.398-0.382,2.546-1.315,3.423-2.78c0.847,0.15,2.084,0.189,3.306-0.432
		c1.368-0.695,2.359-2.01,2.949-3.912c0.594-0.11,1.358-0.372,2.063-0.979c0.312-0.268,0.577-0.583,0.808-0.932
		c2.854,3.278,4.277,7.425,4.23,12.386c-0.045,4.981-1.627,8.952-1.643,8.992c-0.099,0.244-0.07,0.521,0.077,0.739
		c0.148,0.217,0.393,0.349,0.656,0.349h11.075c0.424,0,0.773-0.334,0.79-0.757c0.442-10.371-2.692-18.773-7.035-24.605
		c1.142-0.297,2.337-0.822,3.271-1.746C52.2,30.496,52.74,29.269,52.838,27.849z M49.679,27.066
		c0.087,1.231-0.329,1.798-0.651,2.118c-0.828,0.823-2.315,1.103-3.431,1.177c-3.474-3.633-7.385-5.805-10.779-6.252
		c-0.553-0.072-1.128-0.183-1.757-0.337c-4.932-1.786-5.072-8.607-5.073-8.675c-0.005-0.378-0.277-0.701-0.649-0.768
		c-0.376-0.072-0.741,0.137-0.879,0.489c-0.685,1.749-0.34,4.687,0.181,6.554c-5.602-0.915-9.7-8.154-9.743-8.233
		c-0.148-0.266-0.44-0.424-0.741-0.404c-0.304,0.019-0.571,0.211-0.685,0.493c-1.329,3.304,3.759,9.649,11.188,14.3
		c-3.707-0.477-7.538-3.524-7.58-3.558c-0.303-0.244-0.738-0.231-1.025,0.029c-0.288,0.26-0.347,0.69-0.135,1.016
		c3.118,4.836,6.768,5.188,10.298,5.527c2.671,0.258,5.433,0.524,8.357,2.609c0.53,0.378,1.025,0.777,1.5,1.19
		c-0.542,1.298-1.576,1.37-1.94,1.352c-0.595-0.048-1.131,0.337-1.264,0.916c-0.376,1.636-1.023,2.703-1.922,3.169
		c-1.117,0.581-2.383,0.076-2.386,0.076c-0.591-0.251-1.274,0.009-1.543,0.591c-0.61,1.314-1.402,2.113-2.355,2.378
		c-1.648,0.46-3.398-0.709-3.412-0.718c-0.388-0.267-0.899-0.277-1.298-0.029c-0.034,0.02-3.48,2.118-5.988,0.755
		c-0.039-0.02-0.08-0.033-0.119-0.049c-0.446-1.207-1.597-2.072-2.959-2.072c-0.736,0-1.404,0.261-1.941,0.683
		c-0.124-0.031-0.252-0.052-0.385-0.052c-1.542,0-2.607-0.361-3.161-1.073c-0.733-0.94-0.558-2.482-0.43-2.987
		c0.116-0.441,0.038-0.909-0.216-1.287c-0.254-0.378-0.658-0.629-1.109-0.687c-0.764-0.1-1.027-0.4-1.158-0.617
		c-0.604-0.999-0.13-3.139,0.194-4.016c0.206-0.548,0.091-1.164-0.296-1.603c-0.918-1.037-1.313-2.016-1.207-2.992
		c0.19-1.742,1.918-3.022,1.928-3.03c0.699-0.497,0.874-1.46,0.396-2.171c-0.834-1.24-0.602-1.87-0.527-2.076
		c0.447-1.218,2.511-2.045,3.193-2.239c0.484-0.134,0.876-0.488,1.056-0.956c0.181-0.468,0.129-0.995-0.141-1.418
		c-0.591-0.928-0.416-1.344-0.358-1.481c0.365-0.873,2.149-1.624,3.235-1.856C12.811,10.676,13.359,9.85,13.194,9
		c-0.142-0.728-0.216-1.691,0.242-2.14c0.623-0.61,2.203-0.508,2.866-0.364c0.828,0.189,1.661-0.316,1.879-1.141
		c0.232-0.884,0.594-1.42,1.076-1.591c1.131-0.402,3.164,0.687,3.969,1.275c0.697,0.514,1.674,0.372,2.198-0.315
		c0.507-0.667,1.295-1.473,2.158-1.532C28.448,3.13,29.15,3.82,29.151,3.82c0.511,0.538,1.329,0.646,1.965,0.263
		c1.402-0.849,2.664-1.105,3.747-0.763c1.903,0.6,2.91,2.836,2.916,2.851c0.168,0.394,0.491,0.702,0.892,0.854
		c0.4,0.152,0.846,0.135,1.234-0.047c0.991-0.465,1.479-0.257,1.638-0.19c0.727,0.31,1.189,1.277,1.302,1.611
		c0.132,0.413,0.427,0.754,0.817,0.943c0.39,0.189,0.842,0.209,1.246,0.057c1.318-0.495,2.39-0.506,3.188-0.037
		c1.324,0.78,1.887,2.81,1.992,3.52c0.083,0.596,0.497,1.093,1.067,1.284c0.926,0.309,1.174,0.736,1.28,1.031
		c0.438,1.216-0.552,3.234-0.931,3.842c-0.42,0.666-0.288,1.539,0.312,2.049c0.814,0.694,1.196,1.33,1.134,1.888
		c-0.119,1.055-1.679,2.19-2.412,2.572C49.972,25.835,49.635,26.434,49.679,27.066z"/>
</g>
</svg>
