<?xml version="1.0" encoding="utf-8"?>
<!-- Generator: Adobe Illustrator 17.1.0, SVG Export Plug-In . SVG Version: 6.00 Build 0)  -->
<!DOCTYPE svg PUBLIC "-//W3C//DTD SVG 1.1//EN" "http://www.w3.org/Graphics/SVG/1.1/DTD/svg11.dtd">
<svg version="1.1" id="Layer_1" xmlns="http://www.w3.org/2000/svg" xmlns:xlink="http://www.w3.org/1999/xlink" x="0px" y="0px"
	 viewBox="-0.1 -11.8 100 100" enable-background="new -0.1 -11.8 100 100" xml:space="preserve">
<path d="M16.4,40.6c0.1,0.7-6.2,1.2-7.1,0c-0.9-1.2-1.3-1.8-1.6-3.3c-0.3-1.5-0.3-2.8-0.6-3.2c-0.3-0.4-0.9-1.6,1.2-1.1
	c2,0.4,4.8,0.9,6,3.2C15.4,38.3,16.3,39.3,16.4,40.6z"/>
<path d="M30.8,57.9c-0.2,0.3-2.2,2.5-4.8,2.7c-1.7,0.1-2.2,0.5-2,0.9c0.2,0.4,0.5,0.7,0.8,0.7c0.3,0,0.7,0,1.2-0.1
	c0.4-0.1,1-0.2,0.7,0.2c-0.2,0.4-0.8,0.9-1,1.3c-0.3,0.5-0.3,0.8-0.2,1c0.1,0.2,0.6,0.5,1.1,0.3c0.5-0.2,1.7-0.8,5.4-1.5
	c0.7-0.1,1.4-0.5,1.7-1.1c0.3-0.6,0.7-1.3,0.8-1.6c0.1-0.3,0.4-0.9,0.5-1.3c0.1-0.5,0.8-1.1,0-1.2c-0.8-0.2-1.9-0.2-2.5-0.3
	C32.1,57.8,31,57.6,30.8,57.9z"/>
<path d="M41.7,53.5c0,0-7.1,6.3-13.3,0c-6.2-6.3-1.6-9.9-9.6-15.9c0,0-1.1-0.6-0.3-2c0.8-1.3,7.7-9.8,7.7-9.8s1.1-1.2,3.1-0.4
	c1.8,0.7,7.9,0.8,11.9,14.9C43.2,47.5,42.2,52.1,41.7,53.5z"/>
<path d="M31.7,23.2c0,0,8.5,3.9,11.1,16.3c2.7,12.3,0.3,12.9,1.5,12.9c1.2,0,2.3-1,4-1.9c1.7-0.9,2.5-1.2,3.5-1.3
	c1-0.1,3.3-0.4,4.4-0.4c1.1,0,1-0.3,1.3-1.2c0.3-0.9,6.8-18.5,3-26.1c0,0-1-1.6-3.8-2.3C54,18.5,46,16,33,21.7
	C33,21.7,30.8,22.4,31.7,23.2z"/>
<path d="M63.1,21.7c0,0,1.9,13.1-2.8,24c0,0-0.4,1.2-0.9,2c-0.3,0.6-0.5,0.9-0.1,1c0.4,0.1,0.9,0,1.1,0c0.2,0,6.7,0.2,6.8,0.2
	c0.1,0,0.8,0.2,1.2-0.8c0.4-1.1,6-11.5,6.4-14.3c0.4-2.8-0.3-3.4-1.1-4C72.9,29.2,65,21.3,63.1,21.7z"/>
<path d="M75.4,37.9c0,0-2.4,7-4,9.1c-1.6,2.1,4.7,3.8,7.1,4.5c2.4,0.8,7.5,2.5,9.1,2.7c1.7,0.2,7.2,1,8.2,1c1,0,2.5-0.5,1.5-1.4
	c-1-0.9-17.1-8.6-19.8-14.5l-0.4-1C77.1,38.4,76.5,36.7,75.4,37.9z"/>
<path d="M67.9,51.5c0,0,1.9,5.2,0.6,7.2c-1.2,2-3.9,3-4.3,3.3c-0.5,0.3-0.7,0.4-1.2,0.4c-0.5,0-0.8-0.5-0.6-0.8c0.1-0.4,0-1,0-1
	s-3-0.4-3.3-0.5c-0.3-0.1-0.9-0.6-0.4-1c0.5-0.4,2.8-2.5,3.5-2.8c0.6-0.4,0.4-1.6,0.4-2.1c0-0.5-0.6-2-0.6-2s-0.5-1.3,1.2-1.4
	C64.7,50.7,67.9,51.5,67.9,51.5z"/>
<path d="M12.3,43.1c0,0-4,1-5.3,12.6c0,0-0.3,1.1-0.9,1.7c-0.6,0.6-4.2,3.3-4.2,5.4c0,0,0.5,1.5,3.8,1.1c3.3-0.4,4.7-3.1,4.9-3.3
	c0.2-0.3,2.4-0.9,4.4-1.1c2-0.3,6.7-2.9,7.4-3.8c0.7-0.9,1.9-10.4-3.4-11.9C13.6,42.3,12.3,43.1,12.3,43.1z M12.3,50.2
	c0,0.6-0.5,1-1,1c-0.6,0-1-0.5-1-1s0.5-1,1-1C11.8,49.2,12.3,49.7,12.3,50.2z"/>
</svg>
