<svg xmlns="http://www.w3.org/2000/svg" xmlns:xlink="http://www.w3.org/1999/xlink" version="1.1" id="Layer_1" x="0px" y="0px" width="100px" height="100px" viewBox="0 0 100 100" enable-background="new 0 0 100 100" xml:space="preserve">
<path d="M88.261,49.132c-3.147-4.993-7.793-9.065-13.671-12.065c1.019-2.406,3.885-10.585,0.224-19.454c0,0,4.92-3.826,4.312-8.504  c0,0-0.638-7.836-6.195-7.836c0,0-2.673-0.364-8.853,4.31c0,0-0.871-0.772-2.507-1.151c-4.454-1.033-11.52-0.995-11.52-0.995h-0.103  c0,0-7.066-0.038-11.52,0.995c-1.637,0.379-2.507,1.151-2.507,1.151c-6.179-4.674-8.852-4.31-8.852-4.31  c-5.558,0-6.196,7.836-6.196,7.836c-0.607,4.678,4.313,8.504,4.313,8.504c-3.662,8.868-0.796,17.047,0.222,19.454  c-5.877,3-10.523,7.072-13.67,12.065C4.693,60.312,4.48,75.183,13.705,91.99c1.166,2.125,3.083,3.046,5.063,3.142  c-0.039-0.046-0.08-0.086-0.119-0.132l-0.015-0.019l-0.013-0.018l-0.16-0.217c-0.146-0.196-0.297-0.399-0.452-0.639l-0.085-0.146  c-0.137-0.231-0.267-0.455-0.385-0.678l-0.015-0.028l-0.012-0.027c-0.234-0.555-0.504-1.369-0.142-2.059  c0.23-0.44,0.652-0.727,1.253-0.851c0.237-0.05,0.5-0.075,0.763-0.075c0.397,0,1.146,0.063,1.69,0.494  c0.7,0.55,0.846,1.435,0.952,2.082l0.017,0.103c0.089,0.529,0.337,1.024,0.629,1.571c0.008,0.013,0.016,0.025,0.023,0.039  c0.677-0.169,1.419-0.365,2.166-0.575c-0.231-0.287-0.457-0.591-0.674-0.909l-0.013-0.02l-0.012-0.02l-0.146-0.244  c-0.128-0.214-0.254-0.423-0.38-0.667l-0.076-0.161c-0.112-0.243-0.218-0.474-0.313-0.704l-0.012-0.028l-0.009-0.028  c-0.18-0.574-0.37-1.411,0.057-2.062c0.271-0.415,0.719-0.66,1.33-0.727c0.12-0.013,0.249-0.021,0.383-0.021  c0.396,0,1.384,0.065,2.017,0.672c0.645,0.617,0.704,1.513,0.748,2.166l0.007,0.104c0.038,0.534,0.236,1.048,0.473,1.617  c0.671-0.227,1.228-0.437,1.571-0.603c0.267-0.13,0.515-0.255,0.76-0.382c-0.258-0.294-0.51-0.602-0.751-0.931l-0.013-0.018  l-0.013-0.019l-0.151-0.233c-0.138-0.209-0.273-0.417-0.409-0.658l-0.083-0.161c-0.121-0.235-0.235-0.461-0.338-0.689l-0.013-0.026  l-0.01-0.029c-0.201-0.565-0.422-1.396-0.021-2.063c0.256-0.426,0.694-0.686,1.302-0.774c0.167-0.025,0.345-0.037,0.528-0.037  c0.367,0,1.287,0.059,1.896,0.6c0.667,0.591,0.76,1.483,0.828,2.135l0.01,0.104c0.031,0.287,0.11,0.566,0.217,0.851  c1.844-1.754,1.651-3.77-0.166-7.525c-0.953-1.969-2.065-4.511-2.956-7.228c-0.114-0.305-0.213-0.614-0.292-0.929  c-0.169-0.669-0.261-1.356-0.261-2.058c0-7.089,9.008-12.836,20.119-12.836s20.119,5.747,20.119,12.836  c0,0.706-0.094,1.398-0.266,2.074c-0.077,0.305-0.174,0.605-0.284,0.902c-0.891,2.722-2.005,5.268-2.958,7.237  c-1.817,3.756-2.011,5.771-0.166,7.525c0.106-0.284,0.186-0.565,0.217-0.851l0.011-0.104c0.068-0.651,0.161-1.544,0.827-2.135  c0.608-0.541,1.529-0.6,1.895-0.6c0.185,0,0.361,0.012,0.53,0.037c0.607,0.089,1.045,0.349,1.302,0.774  c0.4,0.668,0.181,1.498-0.021,2.063l-0.012,0.029l-0.012,0.026c-0.102,0.226-0.216,0.449-0.335,0.683l-0.104,0.199  c-0.119,0.21-0.255,0.418-0.393,0.627L70.2,90.975l-0.012,0.019l-0.014,0.017c-0.24,0.329-0.492,0.638-0.75,0.932  c0.245,0.127,0.492,0.252,0.76,0.382c0.344,0.166,0.9,0.376,1.57,0.603c0.237-0.568,0.436-1.082,0.474-1.617l0.007-0.105  c0.043-0.653,0.104-1.547,0.746-2.162c0.635-0.608,1.623-0.674,2.019-0.674c0.135,0,0.264,0.008,0.384,0.021  c0.609,0.066,1.058,0.312,1.329,0.727c0.426,0.651,0.236,1.488,0.058,2.062l-0.01,0.028l-0.013,0.028  c-0.093,0.23-0.2,0.461-0.312,0.702l-0.09,0.195c-0.11,0.212-0.236,0.421-0.365,0.635l-0.146,0.244l-0.012,0.02l-0.013,0.02  c-0.218,0.318-0.443,0.622-0.674,0.909c0.747,0.21,1.488,0.406,2.165,0.575c0.008-0.014,0.016-0.026,0.023-0.041  c0.292-0.545,0.541-1.04,0.63-1.569l0.016-0.099c0.106-0.648,0.252-1.535,0.952-2.086c0.546-0.431,1.294-0.494,1.692-0.494  c0.261,0,0.525,0.025,0.762,0.075c0.602,0.124,1.023,0.41,1.253,0.849c0.362,0.691,0.093,1.506-0.142,2.061l-0.012,0.027  l-0.014,0.028c-0.121,0.227-0.253,0.452-0.393,0.688l-0.096,0.162c-0.131,0.203-0.278,0.401-0.428,0.603l-0.166,0.225l-0.014,0.019  L81.352,95c-0.039,0.046-0.08,0.086-0.12,0.132c1.981-0.096,3.897-1.017,5.065-3.142C95.521,75.183,95.307,60.312,88.261,49.132z   M34.485,23.205c-1.411,0-2.554-1.143-2.554-2.554c0-1.411,1.144-2.555,2.554-2.555s2.554,1.144,2.554,2.555  C37.04,22.062,35.896,23.205,34.485,23.205z M57.957,42.033c-0.489,0-0.963-0.069-1.415-0.188v0.006  c-4.289-1.123-8.795-1.124-13.084,0v-0.005c-0.453,0.119-0.925,0.188-1.416,0.188c-3.086,0-5.588-2.502-5.588-5.589  c0-6.029,3.085-11.224,7.563-13.72c1.285-0.767,2.818-1.291,4.492-1.49c0.065-0.008,0.131-0.016,0.197-0.023  c0.425-0.044,0.854-0.074,1.295-0.074s0.87,0.03,1.295,0.074c0.065,0.007,0.131,0.015,0.197,0.023  c1.67,0.199,3.201,0.721,4.484,1.486c4.482,2.495,7.57,7.691,7.57,13.724C63.547,39.531,61.044,42.033,57.957,42.033z   M65.516,23.205c-1.411,0-2.555-1.143-2.555-2.554c0-1.411,1.144-2.555,2.555-2.555c1.41,0,2.554,1.144,2.554,2.555  C68.069,22.062,66.926,23.205,65.516,23.205z M57.027,35.197c0.415-0.134,0.668-0.203,0.668-0.203s-0.185,0.172-0.535,0.46  c-0.175,0.147-0.406,0.289-0.675,0.458c-0.264,0.182-0.586,0.325-0.936,0.5c-0.354,0.164-0.747,0.317-1.169,0.459  c-0.428,0.121-0.877,0.283-1.356,0.358c-0.473,0.1-0.975,0.192-1.494,0.236c-0.527,0.071-1.002,0.058-1.509,0.085  c-0.56-0.027-1.049-0.016-1.565-0.087c-0.509-0.045-1.004-0.135-1.48-0.235c-0.479-0.075-0.928-0.239-1.355-0.358  c-0.423-0.142-0.816-0.296-1.17-0.459c-0.352-0.175-0.669-0.317-0.939-0.5c-0.27-0.171-0.506-0.315-0.675-0.458  c-0.343-0.284-0.533-0.458-0.533-0.458s0.249,0.067,0.672,0.206c0.21,0.077,0.474,0.117,0.757,0.203  c0.279,0.085,0.628,0.126,0.978,0.217c0.359,0.07,0.753,0.122,1.161,0.197c0.417,0.044,0.847,0.112,1.3,0.147  c0.449,0.055,0.917,0.068,1.391,0.093c0.464,0.036,0.978,0.019,1.417,0.038c0.492-0.018,1.02-0.004,1.473-0.04  c0.231-0.016,0.462-0.026,0.69-0.031c0.232-0.021,0.462-0.041,0.687-0.061c0.452-0.035,0.883-0.105,1.3-0.148  c0.407-0.074,0.801-0.127,1.16-0.197c0.351-0.09,0.696-0.13,0.98-0.217C56.554,35.313,56.823,35.27,57.027,35.197z M35.994,20.651  c0,0.833-0.675,1.508-1.509,1.508c-0.833,0-1.508-0.675-1.508-1.508c0-0.834,0.675-1.509,1.508-1.509  C35.318,19.142,35.994,19.817,35.994,20.651z M24.953,98.733c0,0-2.322-0.98-4.338-2.753c-0.31-0.27-0.602-0.562-0.883-0.865  c-0.179-0.192-0.356-0.384-0.521-0.582c-0.197-0.271-0.399-0.528-0.572-0.794c-0.162-0.276-0.317-0.535-0.454-0.797  c-0.367-0.866-0.487-1.687,0.588-1.909c0.182-0.037,0.395-0.06,0.614-0.06c0.45,0,0.93,0.093,1.24,0.337  c0.507,0.398,0.602,1.141,0.701,1.732c0.101,0.602,0.358,1.135,0.64,1.667c0.022,0.043,0.043,0.084,0.065,0.125  c0.275,0.519,0.587,1.034,0.917,1.498c0.323,0.47,0.659,0.893,0.954,1.25C24.499,98.296,24.953,98.733,24.953,98.733z   M29.172,96.127c0.524,0.766,0.933,1.246,0.933,1.246s-2.217-1.201-4.053-3.16c-0.144-0.15-0.277-0.314-0.414-0.475  c-0.3-0.355-0.588-0.721-0.845-1.1c-0.171-0.288-0.347-0.563-0.493-0.844c-0.134-0.292-0.264-0.564-0.375-0.838  c-0.282-0.897-0.322-1.726,0.77-1.845c0.095-0.011,0.197-0.017,0.304-0.017c0.527,0,1.161,0.133,1.514,0.473  c0.467,0.445,0.49,1.19,0.531,1.792c0.044,0.637,0.265,1.213,0.507,1.795c0.008,0.019,0.015,0.037,0.022,0.056  c0.225,0.542,0.485,1.085,0.769,1.578C28.62,95.289,28.912,95.74,29.172,96.127z M34.917,93.901c0.554,0.746,0.98,1.21,0.98,1.21  s-2.26-1.117-4.168-3.006c-0.169-0.164-0.328-0.343-0.488-0.521c-0.292-0.324-0.575-0.659-0.829-1.005  c-0.181-0.282-0.367-0.551-0.524-0.825c-0.145-0.287-0.285-0.555-0.407-0.822c-0.315-0.887-0.387-1.714,0.701-1.874  c0.129-0.019,0.272-0.028,0.422-0.028c0.501,0,1.074,0.116,1.412,0.417c0.482,0.426,0.533,1.173,0.597,1.771  c0.048,0.448,0.186,0.863,0.354,1.27c0.078,0.188,0.159,0.375,0.245,0.562c0.245,0.532,0.525,1.064,0.828,1.549  C34.334,93.086,34.644,93.526,34.917,93.901z M81.361,93.739c-0.172,0.266-0.375,0.523-0.571,0.794  c-0.164,0.198-0.342,0.39-0.521,0.582c-0.282,0.303-0.574,0.596-0.883,0.865c-2.018,1.772-4.339,2.753-4.339,2.753  s0.454-0.438,1.05-1.15c0.295-0.357,0.63-0.78,0.953-1.25c0.33-0.464,0.642-0.979,0.916-1.498c0.022-0.041,0.044-0.083,0.065-0.125  c0.283-0.532,0.54-1.065,0.641-1.667c0.099-0.592,0.193-1.334,0.701-1.732c0.31-0.244,0.79-0.337,1.24-0.337  c0.219,0,0.432,0.022,0.613,0.06c1.076,0.223,0.955,1.043,0.588,1.909C81.679,93.204,81.523,93.463,81.361,93.739z M75.206,92.639  c-0.257,0.379-0.544,0.744-0.845,1.1c-0.137,0.16-0.27,0.324-0.414,0.475c-1.835,1.959-4.053,3.16-4.053,3.16  s0.408-0.48,0.934-1.246c0.26-0.387,0.552-0.838,0.83-1.338c0.282-0.493,0.543-1.036,0.769-1.578  c0.008-0.019,0.015-0.037,0.022-0.056c0.241-0.582,0.462-1.16,0.506-1.795c0.043-0.602,0.064-1.347,0.531-1.792  c0.353-0.34,0.987-0.473,1.514-0.473c0.107,0,0.209,0.006,0.305,0.017c1.093,0.119,1.052,0.947,0.771,1.845  c-0.112,0.273-0.242,0.546-0.376,0.838C75.553,92.075,75.376,92.351,75.206,92.639z M69.587,90.58  c-0.254,0.346-0.535,0.681-0.828,1.005c-0.159,0.178-0.318,0.356-0.487,0.521c-1.908,1.889-4.17,3.006-4.17,3.006  s0.427-0.464,0.981-1.21c0.273-0.375,0.583-0.815,0.879-1.304c0.301-0.484,0.582-1.017,0.827-1.549  c0.086-0.187,0.167-0.373,0.243-0.562c0.168-0.406,0.307-0.821,0.354-1.27c0.063-0.598,0.115-1.345,0.598-1.771  c0.337-0.301,0.91-0.417,1.41-0.417c0.151,0,0.295,0.01,0.424,0.028c1.088,0.16,1.016,0.987,0.7,1.874  c-0.122,0.268-0.262,0.535-0.407,0.822C69.955,90.029,69.769,90.298,69.587,90.58z M67.023,20.651c0,0.833-0.675,1.508-1.509,1.508  c-0.833,0-1.509-0.675-1.509-1.508c0-0.834,0.676-1.509,1.509-1.509C66.349,19.142,67.023,19.817,67.023,20.651z M45.548,28.918  c0-1.473,1.528-2.874,4.452-2.874c2.924,0,4.452,1.401,4.452,2.874c0,0.767-0.99,2.437-1.941,1.685  c-0.254-0.202-0.217-0.518-0.188-0.829c0.033-0.349,0.141-0.594-0.224-0.812c-0.401-0.239-1.116,0.118-1.178,0.578  c-0.06,0.447,0.145,0.843,0.214,1.262c0.062,0.378-0.186,0.616-0.466,0.766c-0.016,0.008-0.029,0.019-0.045,0.027  c-0.026,0.016-0.059,0.025-0.087,0.039c-0.079,0.034-0.154,0.062-0.226,0.083c-0.098,0.023-0.201,0.042-0.312,0.042  c-0.11,0-0.213-0.018-0.311-0.042c-0.072-0.021-0.147-0.049-0.227-0.083c-0.028-0.014-0.061-0.023-0.086-0.039  c-0.015-0.008-0.029-0.019-0.045-0.027c-0.28-0.15-0.526-0.388-0.464-0.766c0.069-0.418,0.272-0.814,0.212-1.262  c-0.061-0.459-0.775-0.816-1.177-0.578c-0.365,0.218-0.257,0.463-0.225,0.812c0.029,0.311,0.066,0.627-0.189,0.829  C46.538,31.355,45.548,29.686,45.548,28.918z"/>
</svg>