<?xml version="1.0" encoding="utf-8"?>
<!-- Generator: Adobe Illustrator 17.1.0, SVG Export Plug-In . SVG Version: 6.00 Build 0)  -->
<!DOCTYPE svg PUBLIC "-//W3C//DTD SVG 1.1//EN" "http://www.w3.org/Graphics/SVG/1.1/DTD/svg11.dtd">
<svg version="1.1" id="Your_Icon" xmlns="http://www.w3.org/2000/svg" xmlns:xlink="http://www.w3.org/1999/xlink" x="0px" y="0px"
	 viewBox="0 0 100 100" enable-background="new 0 0 100 100" xml:space="preserve">
<path d="M52.8,10.4c0,0-2.7,0.2-4.6-4.2c0,0,1.2-0.4,4.1,1.5c0,0,2.1-1,3.5-0.1c0,0,2.1-1.8,4.9-1.5c0,0,0.6,2.2-3.5,3.7
	c0,0,3.2,3.8,3.8,5c0,0,1.6,2.5-1.9,1.2l-3-0.8c0,0-0.8-0.4-0.8,2.2c0,0-0.6,5.6-0.6,21.8c0,0,0.7,14.3,1.2,18.6
	c0,0,1.1,12.7,1.9,36.3h-1.6c0,0-5.9-53.5-5.7,0h-1.6c0,0-1.9-46.7-14.4,0h-2.6c0,0,2.6-20.6,10.3-27.3c5.3-4.6,9.7-7.8,9.8-27.5
	C52.2,39.3,51.8,18.4,52.8,10.4z"/>
</svg>
