<svg xmlns="http://www.w3.org/2000/svg" xmlns:xlink="http://www.w3.org/1999/xlink" version="1.1" id="Layer_1" x="0px" y="0px" width="100px" height="100px" viewBox="0 0 100 100" enable-background="new 0 0 100 100" xml:space="preserve">
<g>
	<path d="M88.008,81.757C88.77,83.614,87.427,80.202,88.008,81.757L88.008,81.757z"/>
	<path d="M84.1,80.426c2.934-1.803-0.086-4.724-2.536-2.219c-0.069-1.039,0.15-3.001-0.729-3.771c-1.632-0.986-3.264,1.268-3,2.747   c-2.026-8.917-9.085-23.264-19.247-24.872c4.96-8.054-3.289-20.341-9.683-25.368c6.664-2.269,9.118-8.658,12.065-14.413   c0.758-1.481,6.261-8.821,4.437-10.575c-3.456-3.326-10.862,2.382-13.21,4.737c-4.961,4.975-7.014,12.633-10.336,18.677   c-0.566-8.479-4.172-13.492-11.926-16.739c-1.498-0.626-18.058-7.651-17.85-3.317c0.2,4.168,6.459,8.365,9.479,10.596   c2.904,2.146,5.844,4.243,8.772,6.355c0.73,0.526,3.881,3.615,4.746,3.556c-3.313,1.796-7.524,4.715-9.204,8.197   c-2.854,5.915-1.911,14.169,2.266,19.187c-7.588,5.38-7.23,14.628-5.682,22.841c0.848,4.493,2.034,8.928,2.659,13.461   c0.445,3.231-0.608,5.959,3.524,5.979c3.113,0.017-0.638-5.805,2.315-5.598c2.78,0.193,6.372-0.203,8.923,1.085   c3.264,1.648-1.907,5.23,3.128,5.62c2.617,0.203,1.632-2.087,2.853-3.403c1.943-2.096,6.144,0.316,7.954,1.377   c-2.948,1.005-3.523,4.298,0.094,4.475c1.58,0.076,3.176-0.243,4.719-0.538c2.282-0.44,4.003-0.052,6.293,0.043   c3.167,0.127,6.42-0.592,8.907-2.645c1.019-0.841,1.871-1.87,2.537-3.008c0.354-0.606,2.419-2.421,2.45-3.361   c0.556,1.842,3.795,1.875,3.317-0.38c1.336,2.277,3.814,0.874,2.609-1.448c2.485,2.581,3.761-3.118,0.537-3.855   c1.276,0.057,3.484-0.24,2.726-2.091C87.422,80.188,85.4,80.5,84.1,80.426z M30.251,38.123   C30.253,38.112,30.253,38.111,30.251,38.123L30.251,38.123z M35.127,39.063c-0.361,3.172-5.28,2.614-4.918-0.56   C30.568,35.332,35.485,35.891,35.127,39.063z M37.538,48.162c-0.544-1.043-1.087-2.087-1.631-3.13   c1.697,0.035,3.396,0.072,5.094,0.107C39.847,46.146,38.692,47.154,37.538,48.162z M46.92,39.036   c-0.359,3.173-5.282,2.616-4.92-0.557C42.36,35.307,47.279,35.864,46.92,39.036z"/>
	<circle cx="31.822" cy="38.159" r="1.095"/>
	<circle cx="43.572" cy="38.159" r="1.095"/>
</g>
</svg>