<svg xmlns:dc="http://purl.org/dc/elements/1.1/" xmlns:cc="http://creativecommons.org/ns#" xmlns:rdf="http://www.w3.org/1999/02/22-rdf-syntax-ns#" xmlns:svg="http://www.w3.org/2000/svg" xmlns="http://www.w3.org/2000/svg" xmlns:sodipodi="http://sodipodi.sourceforge.net/DTD/sodipodi-0.dtd" xmlns:inkscape="http://www.inkscape.org/namespaces/inkscape" width="100" height="100" viewBox="0 0 80 80" version="1.1" id="svg2" inkscape:version="0.48.2 r9819" sodipodi:docname="blank.svg">
  <metadata id="metadata10">
    <rdf:RDF>
      <cc:Work rdf:about="">
        <dc:format>image/svg+xml</dc:format>
        <dc:type rdf:resource="http://purl.org/dc/dcmitype/StillImage"/>
        <dc:title/>
      </cc:Work>
    </rdf:RDF>
  </metadata>
  <defs id="defs8">
    <inkscape:path-effect is_visible="true" id="path-effect5043" effect="spiro"/>
    <inkscape:path-effect is_visible="true" id="path-effect5065" effect="spiro"/>
  </defs>
  <sodipodi:namedview pagecolor="#ffffff" bordercolor="#666666" borderopacity="1" objecttolerance="10" gridtolerance="10" guidetolerance="10" inkscape:pageopacity="0" inkscape:pageshadow="2" inkscape:window-width="1366" inkscape:window-height="706" id="namedview6" showgrid="true" inkscape:zoom="6.1537253" inkscape:cx="35.475972" inkscape:cy="44.53127" inkscape:window-x="-8" inkscape:window-y="-8" inkscape:window-maximized="1" inkscape:current-layer="svg2" inkscape:snap-grids="false">
    <inkscape:grid type="xygrid" id="grid3807"/>
  </sodipodi:namedview>
  <path id="path2986" d="m 35.158071,30.876124 c 0.54967,-0.36363 1.2431,-0.55813 1.87734,-0.30443 -0.18605,1.26847 -0.76109,2.46083 -0.78646,3.75467 -0.0169,0.63424 0.24524,1.24311 0.60887,1.75049 0.36363,0.4482 0.88793,0.67652 1.36995,0.95559 -0.389,0.0592 -0.778,0.12684 -1.16699,0.21141 2.30861,0.38054 4.63415,0.65115 6.93431,1.08243 3.42487,0.43973 6.83283,0.94712 10.2577,1.42914 0.71035,0.0761 1.43761,0.46511 2.15641,0.17759 0.39745,-0.11839 0.76954,-0.35517 1.20082,-0.3298 0.5243,0.30443 0.86256,0.90484 1.49679,1.00632 1.66593,0.34671 3.40796,0.33826 5.02315,0.93021 1.38686,-0.93867 2.76527,-1.92808 4.24515,-2.7399 2.64688,-1.45451 5.47134,-2.62996 8.44802,-3.22192 0.75263,-0.10993 1.4968,-0.30443 2.26634,-0.27906 0.18604,0.0761 0.31289,0.24524 0.44819,0.389 -2.880066,1.996221 -6.293925,4.41724 -8.19432,7.01042 -0.8372,1.36995 -0.60041,3.11198 -0.17759,4.58341 0.34671,0.75262 0.67652,1.52216 1.00632,2.28325 0.36363,0.81182 1.11626,1.44605 1.3023,2.34244 -1.74204,-0.18604 -3.07816,-1.50525 -4.32126,-2.62996 -1.87734,-1.64902 -3.52635,-3.52636 -5.09926,-5.45443 -1.59827,0.0761 -3.19655,-0.0254 -4.78636,0.093 0.0338,0.0761 0.0761,0.14376 0.11839,0.21987 -0.61733,0.16913 -1.15854,0.54967 -1.77586,0.7188 -0.65115,-0.0254 -1.14163,-0.63424 -1.80123,-0.60887 -0.54122,0.0254 -1.06552,0.0761 -1.58982,0.17759 -2.12258,0.35517 -4.29589,0.53276 -6.35082,1.1839 0.67652,0.0254 1.35304,0 2.02956,0.0169 -0.44819,0.22832 -0.92176,0.39745 -1.34458,0.65115 -0.62578,0.4651 -1.12471,1.07397 -1.4968,1.75049 -0.12684,0.21987 -0.33826,0.5243 -0.63423,0.389 -0.89639,-0.36363 -1.58982,-1.05706 -2.34245,-1.63211 -0.34671,-0.21141 -0.80336,0.0338 -1.16699,0.0507 -4.74408,1.14163 -9.62347,1.8266 -14.51132,1.67439 -0.9133,-0.093 -1.78431,0.7188 -1.81814,1.62364 -0.29598,2.34244 0.48202,4.62569 0.60887,6.94277 0.0338,0.28752 -0.18604,0.60041 -0.49893,0.56658 -0.85411,-0.0677 -1.46297,-0.76954 -2.01265,-1.35303 -1.17545,-1.27693 -1.78431,-2.94286 -2.39318,-4.54113 -0.45665,-1.25156 -0.63423,-2.58768 -0.93021,-3.88153 -1.61519,-0.23678 -3.22192,-0.45665 -4.82019,-0.76108 -1.70821,-0.21141 -3.38259,-0.60887 -5.01469,-1.15854 -1.47989,-0.50738 -3.12044,-0.43128 -4.5326799,-1.14162 -0.40591,-0.23678 -0.82027,-0.5243 -1.04014,-0.95558 -0.61733,0.16913 -1.27693,0.093 -1.85197,-0.21141 -1.06552,-0.52431 -3.64562809,-1.625161 -2.6588043,-1.971689 1.94499,-0.68497 3.6651243,-1.191041 5.6185743,-1.850641 2.4861999,-0.74417 5.0062299,-1.37841 7.5685399,-1.79278 1.59828,-0.21986 3.17964,-0.50738 4.77791,-0.66806 2.7399,-0.3298 5.49671,-0.40591 8.24507,-0.62578 1.11625,-0.0846 2.50311,0.0423 3.23037,-0.99786 1.22619,-1.75895 2.4101,-3.68702 4.27898,-4.85402 z" inkscape:connector-curvature="0" style="fill:#000000;stroke:#000000;stroke-width:0.00792795" sodipodi:nodetypes="cccccccccccccccccccccccccccccccccccccccccccccccccccccc"/>
</svg>