<?xml version="1.0" encoding="utf-8"?>
<!-- Generator: Adobe Illustrator 15.1.0, SVG Export Plug-In . SVG Version: 6.00 Build 0)  -->
<!DOCTYPE svg PUBLIC "-//W3C//DTD SVG 1.1//EN" "http://www.w3.org/Graphics/SVG/1.1/DTD/svg11.dtd">
<svg version="1.1" id="Layer_1" xmlns="http://www.w3.org/2000/svg" xmlns:xlink="http://www.w3.org/1999/xlink" x="0px" y="0px"
	 width="76.443px" height="100px" viewBox="0 0 76.443 100" enable-background="new 0 0 76.443 100" xml:space="preserve">
<path fill="#010101" d="M38.594,28.734c2.983-0.08,5.37-1.373,5.331-2.888l-0.007-0.114c-0.158-1.467-2.569-2.564-5.466-2.487
	c-2.983,0.079-5.371,1.372-5.332,2.888C33.159,27.649,35.609,28.813,38.594,28.734z"/>
<path fill="#010101" d="M75.184,64.935c3.328-3.515-0.168-12.667-7.808-20.439c-5.284-5.375-11.163-8.679-15.39-9.046
	c3.672-3.501,5.925-8.41,5.852-13.813c1.496-0.166,2.849-0.735,3.908-1.749l0.253-0.256c3.168-3.408,2.126-9.924-2.363-14.772
	C55.012-0.135,48.46-1.503,45.001,1.803c-0.57,0.545-1.009,1.19-1.343,1.897c-1.741-0.457-3.575-0.688-5.471-0.638
	c-2.123,0.057-4.15,0.463-6.043,1.14c-0.323-0.496-0.71-0.945-1.166-1.336c-3.624-3.118-10.097-1.404-14.458,3.828
	c-4.233,5.08-4.939,11.643-1.6,14.878l0.265,0.242c1.199,1.031,2.712,1.523,4.354,1.545c0.356,4.733,2.469,8.959,5.707,12.064
	c-4.262-0.016-10.556,3.352-16.179,9.072C1.427,52.268-2.068,61.42,1.26,64.935c3.067,3.24,10.86,0.552,18.044-5.974
	c-0.02,0.486-0.031,0.965-0.031,1.43c0,3.006,0.454,6.125,1.44,9.036c-1.425,1.654-2.774,3.578-3.953,5.764
	c-1.279,2.372-2.206,4.856-2.884,7.228c-7.624-0.15-8.97,0.566-10.326,4.054c-1.321,3.396,1.893,7.568,4.685,9.868
	c3.681,3.031,10.076,4.178,13.804,3.446c2.739-0.538,5.606-1.958,7.529-4.399c2.229-2.83,2.971-3.975,4.92-7.59
	c1-1.855,1.812-3.746,2.444-5.616c0.526,0.033,1.062,0.056,1.615,0.053c0.553-0.003,1.086-0.028,1.611-0.065
	c0.632,1.874,1.444,3.77,2.447,5.629c1.95,3.615,2.691,4.76,4.92,7.59c1.923,2.441,4.791,3.861,7.529,4.399
	c3.729,0.731,10.124-0.415,13.805-3.446c2.792-2.3,6.005-6.472,4.684-9.868c-1.355-3.487-2.701-4.204-10.325-4.054
	c-0.678-2.371-1.605-4.855-2.884-7.228c-1.176-2.181-2.521-4.1-3.942-5.751c0.982-2.908,1.429-6.03,1.429-9.049
	c0-0.274-0.008-0.557-0.014-0.837C64.801,65.646,72.211,68.075,75.184,64.935z M38.375,20.125c5.526-0.147,10.177,3.6,10.531,8.469
	v0.375c0.13,5.026-4.37,9.224-10.062,9.375S28.442,34.526,28.312,29.5C28.184,24.474,32.683,20.276,38.375,20.125z"/>
</svg>
