<svg xmlns="http://www.w3.org/2000/svg" xmlns:xlink="http://www.w3.org/1999/xlink" version="1.1" x="0px" y="0px" width="100px" height="100px" viewBox="0 0 100 100" enable-background="new 0 0 100 100" xml:space="preserve">
<g id="Captions">
</g>
<g id="Your_Icon">
	<path d="M9.059,60.191"/>
	<circle cx="88.411" cy="51.88" r="1.923"/>
	<g>
		<circle fill="none" cx="88.411" cy="51.879" r="4.711"/>
		<path d="M99.649,60.34c0-9.979-8.09-18.07-18.069-18.07c-1.558,0-3.061,0.218-4.503,0.589    c-6.161-11.124-18.014-18.657-31.63-18.657c-16.838,0-30.987,11.516-34.999,27.102c-0.145-0.006-0.289-0.021-0.436-0.021    C5.023,51.295,0.987,55.35,1,60.34l8.31-0.021c0,0.007,0,0.014,0,0.021h11.032l-7.365,12.756    c8.643,4.99,19.693,2.029,24.682-6.614c1.129-1.956,1.831-4.037,2.172-6.142h11.574c0.4,1.546,0.995,3.066,1.832,4.517    c4.99,8.644,16.039,11.604,24.683,6.615L71.492,60.34h10.094H99.649z M88.411,47.168c2.601,0,4.709,2.109,4.709,4.711    c0,2.601-2.108,4.71-4.709,4.71c-2.603,0-4.712-2.109-4.712-4.71C83.699,49.277,85.809,47.168,88.411,47.168z"/>
	</g>
</g>
</svg>