<?xml version="1.0" encoding="utf-8"?>
<!-- Generator: Adobe Illustrator 17.1.0, SVG Export Plug-In . SVG Version: 6.00 Build 0)  -->
<!DOCTYPE svg PUBLIC "-//W3C//DTD SVG 1.1//EN" "http://www.w3.org/Graphics/SVG/1.1/DTD/svg11.dtd">
<svg version="1.1" id="Layer_1" xmlns="http://www.w3.org/2000/svg" xmlns:xlink="http://www.w3.org/1999/xlink" x="0px" y="0px"
	 viewBox="0 0 276.887 98.914" enable-background="new 0 0 276.887 98.914" xml:space="preserve">
<rect x="0" y="0" fill="#FFFFFF" width="276.887" height="98.914"/>
<g>
	<path d="M272.193,89.878c0,2.75-2.25,5-5,5H9.693c-2.75,0-5-2.25-5-5V9.621c0-2.75,2.25-5,5-5h257.5c2.75,0,5,2.25,5,5V89.878z"/>
</g>
<g id="l1xiiB.tif">
	<g>
		<path fill="#FFFFFF" d="M209.588,29.438l-185.445,0l-6.894-0.011l-0.69,0.71l-0.001,39.763l0.708,0.69l0.431-0.003l191.89,0
			c0,0-6.797,15.965-1.204,18.074c4.5,3.167,55.336-39.27,55.336-39.27S212.884,9.658,209.875,9.676
			C200.554,9.732,209.588,29.438,209.588,29.438L209.588,29.438z"/>
	</g>
</g>
</svg>
