<?xml version="1.0" encoding="utf-8"?>
<!-- Generator: Adobe Illustrator 17.1.0, SVG Export Plug-In . SVG Version: 6.00 Build 0)  -->
<!DOCTYPE svg PUBLIC "-//W3C//DTD SVG 1.1//EN" "http://www.w3.org/Graphics/SVG/1.1/DTD/svg11.dtd">
<svg version="1.1" id="Layer_1" xmlns="http://www.w3.org/2000/svg" xmlns:xlink="http://www.w3.org/1999/xlink" x="0px" y="0px"
	 viewBox="0 0 232.615 232.615" enable-background="new 0 0 232.615 232.615" xml:space="preserve">
<g>
	<path fill="#FFD348" d="M123.469,222.469c-3.939,3.939-10.384,3.939-14.323,0l-99-99c-3.939-3.939-3.939-10.384,0-14.323l99-99
		c3.939-3.939,10.384-3.939,14.323,0l99,99c3.939,3.939,3.939,10.384,0,14.323L123.469,222.469z"/>
	<path fill="none" stroke="#FFD348" stroke-width="14.384" stroke-miterlimit="10" d="M123.469,222.469
		c-3.939,3.939-10.384,3.939-14.323,0l-99-99c-3.939-3.939-3.939-10.384,0-14.323l99-99c3.939-3.939,10.384-3.939,14.323,0l99,99
		c3.939,3.939,3.939,10.384,0,14.323L123.469,222.469z"/>
	<path fill="none" stroke="#000000" stroke-width="3.596" stroke-miterlimit="10" d="M123.469,222.469
		c-3.939,3.939-10.384,3.939-14.323,0l-99-99c-3.939-3.939-3.939-10.384,0-14.323l99-99c3.939-3.939,10.384-3.939,14.323,0l99,99
		c3.939,3.939,3.939,10.384,0,14.323L123.469,222.469z"/>
</g>
</svg>
