<svg xmlns="http://www.w3.org/2000/svg" xmlns:xlink="http://www.w3.org/1999/xlink" version="1.1" x="0px" y="0px" width="100px" height="100px" viewBox="0 0 100 100" enable-background="new 0 0 100 100" xml:space="preserve">
<g id="Captions">
</g>
<g id="Your_Icon">
	<path fill-rule="evenodd" clip-rule="evenodd" d="M99.777,33.388c-0.233,0.746-0.676,1.399-1.329,1.96   c-0.653,0.56-1.33,0.839-2.029,0.839c-0.42,0-1.703-0.792-3.85-2.379c-1.025-0.746-1.888-1.119-2.588-1.119   c-2.239,0-3.965,0.746-5.178,2.239c-0.653,0.886-1.213,2.075-1.679,3.568c-0.281,0.84-0.654,2.263-1.119,4.269   c-0.607,2.893-1.051,4.758-1.33,5.598c-0.56,1.912-1.283,3.452-2.17,4.618c-1.586,2.192-3.148,4.059-4.688,5.598   c-1.539,1.54-3.242,2.893-5.107,4.059c-1.539,0.887-3.172,1.656-4.898,2.31c-1.726,0.653-3.639,1.143-5.738,1.469   c0,0.694,0,1.228,0,1.598l0.969,4.306c0.055,0.324,0.082,0.765,0.082,1.32s0,0.973,0,1.25c0,0.556-0.35,0.833-1.051,0.833   c-0.699,0-1.188,0-1.469,0c-0.326,0-0.805,0-1.434,0c-0.631,0-1.155,0-1.575,0c-0.56,0-0.839-0.298-0.839-0.894   c0-0.55-0.047-1.637-0.141-3.263c-0.093-1.627-0.14-2.531-0.14-2.715c0-0.644,0-1.105,0-1.385   c-0.974,0.232-1.888,0.396-2.745,0.489c-0.856,0.093-1.609,0.14-2.258,0.14c-0.462,0-1.227,0-2.293,0c-1.065,0-1.945,0-2.64,0   v1.564c0.28,1.224,0.56,2.426,0.84,3.605c0,0.589,0,1.042,0,1.359s-0.046,0.646-0.138,0.987c-0.092,0.342-0.393,0.467-0.9,0.373   c-0.231-0.059-0.647-0.116-1.247-0.175c-0.601-0.059-1.293-0.088-2.078-0.088h-1.593c-0.601,0-0.9-0.229-0.9-0.688l0.279-0.549   c0-0.184,0-0.379,0-0.585c0-0.207,0-0.446,0-0.722c0-0.366,0-0.985,0-1.855c0-0.503,0-1.029,0-1.581c0-0.55,0-1.122,0-1.717   c-0.653,0.228-1.469,0.595-2.449,1.1c-0.7,0.366-1.516,0.801-2.449,1.305c-2.938,1.696-5.294,1.816-7.067,2.504   c-2.939,1.146-5.994,1.718-9.166,1.718c-2.099,0-4.373-0.067-6.822-0.583c-2.449-0.514-5.189-0.447-8.222-1.565   C0.21,72.368,0,72.101,0,71.698c0-0.536,0.35-0.805,1.049-0.805c7.184,0,12.419-0.327,15.708-0.982   c3.288-0.654,5.703-1.801,7.242-3.438c2.379-4.444,4.653-8.082,6.822-10.912c2.169-2.831,5.236-5.369,9.201-7.614   c0.7-0.422,1.458-0.726,2.274-0.912c0.816-0.188,1.667-0.281,2.554-0.281c1.679,0,4.337,0.933,7.976,2.799s6.391,2.799,8.256,2.799   h1.47c0.793,0,1.423-0.035,1.89-0.104c0.467-0.07,0.979-0.245,1.539-0.524c1.773-0.793,3.313-1.797,4.619-3.009   c1.072-1.027,2.169-2.356,3.288-3.989c0.653-1.026,1.632-2.822,2.938-5.388c1.119-2.285,2.075-4.059,2.868-5.318   c1.12-1.866,2.402-3.289,3.85-4.268c1.679-1.167,3.591-1.75,5.737-1.75c1.726,0,3.545,0.303,5.457,0.909   c1.913,0.606,3.312,1.354,4.198,2.239C99.73,31.756,100.011,32.502,99.777,33.388z"/>
	<circle fill="#000000" cx="97.394" cy="32.092" r="0.472"/>
</g>
</svg>