<svg xmlns="http://www.w3.org/2000/svg" xmlns:xlink="http://www.w3.org/1999/xlink" version="1.1" id="Layer_1" x="0px" y="0px" width="50px" height="50px" viewBox="0 0 50 50" enable-background="new 0 0 50 50" xml:space="preserve">
<g>
	<path fill="#000000" d="M23.066,18L13,24.758v21c0,0,5,2,5-3v-7c0,0,10.824-3.395,18.648-5.51l6.925,5.627l1.032,9.21   c0,0,4.604,2.103,4.863-2.046l-1.766-10.175l-3.858-6.966l2.859-11.303c0,0,0.901-5.416-3.739-5.744   c-0.529-0.037-1.309,0.379-1.725,1.167c0.557,0.278,4.045,1.521,1.889,5.26L41.066,18H23.066z"/>
	<g>
		<path fill="#000000" d="M1.473,13.939l1.442,5.564l6.65,0.256l1.023,2.302l9.225-6.786l-3.597-6.004l0.512-6.141l-3.325,1.791    l-0.512,2.303L1.473,13.939z M9.998,12.893c0-0.738,0.599-1.336,1.336-1.336c0.736,0,1.336,0.598,1.336,1.336    c0,0.737-0.6,1.336-1.336,1.336C10.596,14.229,9.998,13.63,9.998,12.893z"/>
	</g>
</g>
</svg>