<?xml version="1.0" encoding="utf-8"?>
<!-- Generator: Adobe Illustrator 17.1.0, SVG Export Plug-In . SVG Version: 6.00 Build 0)  -->
<!DOCTYPE svg PUBLIC "-//W3C//DTD SVG 1.1//EN" "http://www.w3.org/Graphics/SVG/1.1/DTD/svg11.dtd">
<svg version="1.1" id="Layer_1" xmlns="http://www.w3.org/2000/svg" xmlns:xlink="http://www.w3.org/1999/xlink" x="0px" y="0px"
	 viewBox="0 0 167.316 229.364" enable-background="new 0 0 167.316 229.364" xml:space="preserve">
<g>
	<path fill="#FFFFFF" d="M157.316,213.448c0,3.254-2.662,5.916-5.916,5.916H15.916c-3.254,0-5.916-2.662-5.916-5.916V15.916
		C10,12.662,12.662,10,15.916,10H151.4c3.254,0,5.916,2.662,5.916,5.916V213.448z"/>
	<path fill="none" stroke="#FFFFFF" stroke-width="20" stroke-miterlimit="10" d="M157.316,213.448c0,3.254-2.662,5.916-5.916,5.916
		H15.916c-3.254,0-5.916-2.662-5.916-5.916V15.916C10,12.662,12.662,10,15.916,10H151.4c3.254,0,5.916,2.662,5.916,5.916V213.448z"
		/>
	<path fill="none" stroke="#DB1F26" stroke-width="5.3242" stroke-miterlimit="10" d="M157.316,213.448
		c0,3.254-2.662,5.916-5.916,5.916H15.916c-3.254,0-5.916-2.662-5.916-5.916V15.916C10,12.662,12.662,10,15.916,10H151.4
		c3.254,0,5.916,2.662,5.916,5.916V213.448z"/>
</g>
</svg>
