<?xml version="1.0" encoding="utf-8"?>
<!-- Generator: Adobe Illustrator 17.1.0, SVG Export Plug-In . SVG Version: 6.00 Build 0)  -->
<!DOCTYPE svg PUBLIC "-//W3C//DTD SVG 1.1//EN" "http://www.w3.org/Graphics/SVG/1.1/DTD/svg11.dtd">
<svg version="1.1" id="Layer_1" xmlns="http://www.w3.org/2000/svg" xmlns:xlink="http://www.w3.org/1999/xlink" x="0px" y="0px"
	 viewBox="0 0 245.765 205.949" enable-background="new 0 0 245.765 205.949" xml:space="preserve">
<g>
	<path fill="#FFD348" d="M14.059,198.365c-5.874,0-8.179-4.104-5.123-9.121l108.39-177.898c3.056-5.016,8.058-5.016,11.114,0
		l108.39,177.898c3.056,5.016,0.751,9.121-5.123,9.121H14.059z"/>
	<path fill="none" stroke="#FFD348" stroke-width="15.1685" stroke-miterlimit="10" d="M14.059,198.365
		c-5.874,0-8.179-4.104-5.123-9.121l108.39-177.898c3.056-5.016,8.058-5.016,11.114,0l108.39,177.898
		c3.056,5.016,0.751,9.121-5.123,9.121H14.059z"/>
	<path fill="none" stroke="#000000" stroke-width="3.7921" stroke-miterlimit="10" d="M14.059,198.365
		c-5.874,0-8.179-4.104-5.123-9.121l108.39-177.898c3.056-5.016,8.058-5.016,11.114,0l108.39,177.898
		c3.056,5.016,0.751,9.121-5.123,9.121H14.059z"/>
</g>
</svg>
